<svg xmlns="http://www.w3.org/2000/svg" xmlns:xlink="http://www.w3.org/1999/xlink" version="1.1" style="enable-background:new 0 0 700 400;" xml:space="preserve" width="700" height="400">
	<rect id="backgroundrect" width="100%" height="100%" x="0" y="0" fill="none" stroke="none"/>
	<style type="text/css">
	.st0{fill:#FCD20B;}
	.st1{fill:#ED1C24;}
	.st2{fill:#FFFFFF;}
	.st3{fill:#765241;}
	</style>
	<g class="currentLayer" style="">
		<title>Layer 1</title>
		<g id="svg_1" class="">
			<path d="M625.0206268310546,121.38971862792971 c-13.9,13.3 -36.1,30.5 -50.1,39.3 c-15.9,10 -37.6,23.1 -60.2,35.3 c-3.1,1.7000000000000002 -4.3,5.7 -2.6,8.7 c8.9,15.5 12.3,33.9 15.7,50.3 c1.7000000000000002,8.1 2.8,16.4 3.4,24.7 c0,0 2.4,38.6 4.6,71.9 c3.6,3.7 8.7,5.6 15.5,0.30000000000000004 c14.9,-11.7 19,-3.9 19,-3.9 s2.1,1.1 3.7,-1.1 c1.7000000000000002,-2.2 7.1,-3.5 10.6,1.1 c3.5,4.7 11.9,0.2 11.9,0.2 s4.1,-0.6000000000000001 6.9,7.5 c1.5,4.3 6.5,6.8 10.8,8.1 c4.6,1.5 7.9,5.6 8.4,10.5 c0.1,1.1 0.2,2.2 0.30000000000000004,3.3 c0.30000000000000004,4.8 0.6000000000000001,10.1 -1.2,14.6 c-0.7000000000000001,1.9 -1.9,3.4 -3.8,4.3 c-1,0.5 -1.8,0.4 -2.9,0.4 c-1.1,0 -2.2,0 -3.4,0 c-7.7,0.1 -15.3,0 -23,0 c-4.3,0 -8.6,0 -12.8,0 c-5,0 -10,0 -15,0 c-5.6,0 -11.3,0 -16.9,0 c-6.2,0 -12.5,0 -18.7,0 c-6.7,0 -13.5,0 -20.2,0 c-7.2,0 -14.4,0 -21.6,0 c-7.6,0 -15.1,0 -22.7,0 c-7.9,0 -15.8,0 -23.6,0 c-8.1,0 -16.2,0 -24.4,0 c-8.3,0 -16.6,0 -24.9,0 c-8.4,0 -16.8,0 -25.2,0 c-8.4,0 -16.9,0 -25.3,0 c-8.4,0 -16.8,0 -25.2,0 c-8.3,0 -16.6,0 -24.9,0 c-8.1,0 -16.3,0 -24.4,0 c-7.9,0 -15.8,0 -23.7,0 c-7.6,0 -15.2,0 -22.8,0 c-7.2,0 -14.5,0 -21.7,0 c-6.8,0 -13.6,0 -20.4,0 c-6.3,0 -12.6,0 -18.9,0 c-5.7,0 -11.4,0 -17.2,0 c-5.1,0 -10.2,0 -15.2,0 c-4.4,0 -8.7,0 -13.1,0 c-3.6,0 -7.2,0 -10.8,0 c-4.8,0 -9.6,0 -14.4,0.1 c-2.7,0.1 -5.8,-0.2 -7.6,-2.4 c-1.3,-1.7000000000000002 -2,-3.8 -2.3,-5.9 c-0.8,-4.8 -0.4,-9.8 0.1,-14.6 c0.5,-4.8 3.8,-9 8.4,-10.5 c4.3,-1.4 9.3,-3.8 10.8,-8.1 c2.8,-8 6.9,-7.5 6.9,-7.5 s8.4,4.5 11.9,-0.2 c3.5,-4.7 9,-3.4 10.6,-1.1 c1.7000000000000002,2.2 3.7,1.1 3.7,1.1 s4.1,-7.8 19,3.9 c5.2,4.1 9.4,3.9 12.7,2 c6.7,-21.9 7.9,-72.6 8.9,-82.3 c2.3,-22.2 8.9,-47.5 18.6,-66.4 c0,0 0,0 0,-0.1 c1.8,-3.5 0.5,-7.9 -3,-9.8 c-22.2,-12.1 -43.5,-24.9 -59.1,-34.7 c-13.9,-8.8 -36.2,-26 -50.1,-39.3 c-29,-27.7 -85.2,-107.1 -72.2,-120.9 c0,0 122.2,-8.4 240.6,137 c5.6,6.9 15.4,9 23.4,5.1 c2.8,-1.4 5.7,-2.7 8.5,-4 c19.5,-8.4 40.5,-13.4 61.7,-14.8 c24.3,-1.6 48.8,1.3 72,8.9 c8.4,2.8 16.7,6.2 24.6,10.1 c8,4 17.8,1.9 23.5,-5 c118.5,-145.8 240.9,-137.4 240.9,-137.4 C710.3206268310547,14.289718627929688 654.0206268310546,93.68971862792966 625.0206268310546,121.38971862792971 z" id="svg_2"/>
			<path class="st0" d="M95.22062683105469,364.68971862792966 c2,-13.3 7,-9.2 10,-5.1 c1.2,1.7000000000000002 3.8,1.6 4.9,-0.2 c7.8,-12.7 10.7,-6.2 11.5,-3.2 c0.2,0.8 0.8,1.4 1.6,1.7000000000000002 l0,0 c1,0.30000000000000004 2,0 2.7,-0.8 c11,-14.2 12.7,-3.7 12.9,2.6 c0,1.5 1.7000000000000002,2.3 3,1.5 c12.1,-8.3 9.2,13.9 9.2,13.9 c6.1,1.1 9.7,7.8 11.5,12.3 c0.8,2 -0.7000000000000001,4.1 -2.8,4.1 h-76.2 C72.82062683105468,369.68971862792966 95.22062683105469,364.68971862792966 95.22062683105469,364.68971862792966 zM601.5206268310546,364.68971862792966 c-2,-13.3 -7,-9.2 -10,-5.1 c-1.2,1.7000000000000002 -3.8,1.6 -4.9,-0.2 c-7.8,-12.7 -10.7,-6.2 -11.5,-3.2 c-0.2,0.8 -0.8,1.4 -1.6,1.7000000000000002 l0,0 c-1,0.30000000000000004 -2,0 -2.7,-0.8 c-11,-14.2 -12.7,-3.7 -12.9,2.6 c0,1.5 -1.7000000000000002,2.3 -3,1.5 c-12.1,-8.3 -9.2,13.9 -9.2,13.9 c-6.1,1.1 -9.7,7.8 -11.5,12.3 c-0.8,2 0.7000000000000001,4.1 2.8,4.1 h76.2 C623.9206268310547,369.68971862792966 601.5206268310546,364.68971862792966 601.5206268310546,364.68971862792966 zM639.8206268310547,25.389718627929682 c-4.1,27.8 -13.3,86 -37.3,106.2 c-14.3,12 -32.7,23.9 -46.2,32.4 c-7.5,4.7 -14.6,10.2 -22,15 c-4,2.6 -8.2,5 -12.5,7.1 c-3,1.4 -9,5.2 -12.3,4.3 c-1.3,-0.30000000000000004 -2.4,-1.2 -3.5,-2 c-1.1,-0.8 -2.3,-1.6 -3.6,-1.8 c-2.3,-0.4 -3.2,1 -3.7,2.9 c-0.6000000000000001,2.4 -0.2,5 1,7.2 c13.6,24.4 22.7,52 25,79.8 c0.9,10.9 -0.4,21.7 0.2,32.5 c0.6000000000000001,10.3 1.5,20.6 3.9,30.6 c0.6000000000000001,2.6 1.3,5.2 2.1,7.7 c0.4,1.3 2.2,7.3 -0.6000000000000001,8 c-0.5,0.1 -1,0 -1.4,-0.1 c-13.1,-3.5 -24.7,-7.3 -37.9,-1.4 c-8.9,4 -13.2,10.6 -18.3,18.7 c-1.9,3.1 -3.6,6.3 -5.1,9.6 c-0.7000000000000001,1.7000000000000002 -1.3,3.4 -2,5.1 c-0.1,0.4 -0.8,4.5 -0.8,4.5 S438.7206268310547,391.7897186279297 433.2206268310547,391.7897186279297 c-10.8,-0.1 -21.6,-0.1 -32.4,-0.1 c-5.9,0 -11.8,-0.1 -17.7,-0.1 l0.8,-7.2 c0.2,0 0.4,0 0.7000000000000001,0 c8,0 16.9,-3 25.2,-12.4 c0.8,-0.9 0.7000000000000001,-2.3 -0.2,-3.2 c-0.9,-0.8 -2.3,-0.7000000000000001 -3.2,0.2 c-18.9,21.6 -41.1,5 -43.4,3.2 c-1.7000000000000002,-1.9 -13.3,-13.6 -37.2,3.5 c-6.4,4.6 -12.9,6.4 -19.1,5.3 c-11.1,-2 -18.3,-12.4 -18.4,-12.5 c-0.7000000000000001,-1 -2.1,-1.3 -3.1,-0.6000000000000001 c-1,0.7000000000000001 -1.3,2.1 -0.6000000000000001,3.1 c0.30000000000000004,0.5 8.3,12.1 21.2,14.4 c1.5,0.30000000000000004 3,0.4 4.5,0.4 c0.8,0 1.5,0 2.3,-0.1 l0.2,5.6 c-6.9,0 -13.8,-0.1 -20.8,-0.2 c-14.7,-0.2 -29.3,-0.5 -44,-0.7000000000000001 c-5.6,-0.1 -11.3,-0.30000000000000004 -16.8,-0.30000000000000004 c0.30000000000000004,-11.5 -7.8,-23.9 -16.3,-30.9 c-10.4,-8.6 -25.5,-9.5 -38.1,-6.4 c-2.9,0.7000000000000001 -10.8,5.4 -13,2 c-1.5,-2.4 3.3,-6.9 4,-9.1 c4.5,-14.2 5.3,-30.1 6.8,-44.8 c2,-19.7 1.2,-39.3 4.7,-58.8 c1.5,-8.3 3.8,-16.6 7.2,-24.3 c1.7000000000000002,-3.9 3.7,-7.7 6,-11.3 c1.9,-3 4.3,-5.6 6.1,-8.7 c1.4,-2.2 5.6,-11 0.2,-11.3 c-4.2,-0.2 -5.2,3.5 -12.4,2.6 c-8.8,-1.1 -17.5,-6.7 -24.7,-11.5 c-7.2,-4.7 -13.9,-10 -21.2,-14.6 c-13.5,-8.5 -36.5,-22.5 -49.6,-35.8 c-21,-21.4 -35.6,-96.9 -31.8,-108 c0,0 69.5,-1.8 180.2,129.2 c5.6,6.6 15,8.6 22.9,4.8 c2.6,-1.3 5.3,-2.5 8,-3.7 c18.9,-8.1 49.2,-14.1 69.7,-15.4 c23.5,-1.6 47.2,1.3 69.6,8.7 c8.2,2.7 20.6,8.2 28.3,12 c7.8,3.9 18.4,-2.6 23.8,-9.3 c78.2,-97.5 145.6,-121.5 170.6,-126.8 C637.1206268310547,17.389718627929682 640.5206268310546,20.489718627929676 639.8206268310547,25.389718627929682 zM279.8206268310547,298.3897186279297 c0,-19.3 -15.7,-35 -35,-35 c-19.3,0 -35,15.7 -35,35 s15.7,35 35,35 C264.12062683105466,333.2897186279297 279.8206268310547,317.68971862792966 279.8206268310547,298.3897186279297 zM356.0206268310547,318.7897186279297 h-8.2 h-8.2 c-4,0 -6.4,4.4 -4.3,7.7 l3.8,6.1 c4.3,5.8 13,5.8 17.3,0 l3.8,-6.1 C362.4206268310547,323.18971862792966 360.0206268310547,318.7897186279297 356.0206268310547,318.7897186279297 zM487.3206268310547,298.3897186279297 c0,-19.3 -15.7,-35 -35,-35 c-19.3,0 -35,15.7 -35,35 s15.7,35 35,35 C471.7206268310547,333.2897186279297 487.3206268310547,317.68971862792966 487.3206268310547,298.3897186279297 z" id="svg_3"/>
			<path class="st1" d="M171.32062683105468,391.2897186279297 c0,0 -12.1,-9.7 -10.8,-23.3 c0,0 47.5,-32.9 63.5,23.4 L171.32062683105468,391.2897186279297 zM524.6206268310547,391.2897186279297 c0,0 12.1,-9.7 10.8,-23.3 c0,0 -47.5,-32.9 -63.5,23.4 L524.6206268310547,391.2897186279297 zM379.2206268310547,392.2897186279297 l0.2,-4.9 c0.1,-1.8 -1.1,-3.3 -2.8,-3.7 c-4,-0.8 -11,-2.9 -14.7,-7.7 c-5.4,-6.9 -20.3,-7.8 -28,0.4 c-4.7,5.1 -10.1,6.7 -13.6,7.2 c-2.1,0.30000000000000004 -3.6,2.1 -3.6,4.2 v4.2 L379.2206268310547,392.2897186279297 z" id="svg_4"/>
			<path class="st2" d="M269.4206268310547,286.8897186279297 c0,8.9 -7.2,16 -16,16 c-8.9,0 -16,-7.2 -16,-16 c0,-8.9 7.2,-16 16,-16 C262.2206268310547,270.8897186279297 269.4206268310547,278.0897186279297 269.4206268310547,286.8897186279297 zM442.8206268310547,270.8897186279297 c-8.9,0 -16,7.2 -16,16 c0,8.9 7.2,16 16,16 c8.9,0 16,-7.2 16,-16 C458.8206268310547,278.0897186279297 451.62062683105466,270.8897186279297 442.8206268310547,270.8897186279297 z" id="svg_5"/>
			<path class="st3" d="M267.2206268310547,306.3897186279297 c0,0.4 0.1,0.9 0.1,1.3 c0,11.4 -9.2,20.6 -20.6,20.6 c-10.5,0 -19.1,-7.8 -20.4,-17.9 c5.4,1.5 12.1,2.2 19.2,1.7000000000000002 C254.0206268310547,311.4897186279297 261.7206268310547,309.3897186279297 267.2206268310547,306.3897186279297 zM428.9206268310547,306.3897186279297 c0,0.4 -0.1,0.9 -0.1,1.3 c0,11.4 9.2,20.6 20.6,20.6 c10.5,0 19.1,-7.8 20.4,-17.9 c-5.4,1.5 -12.1,2.2 -19.2,1.7000000000000002 C442.12062683105466,311.4897186279297 434.4206268310547,309.3897186279297 428.9206268310547,306.3897186279297 z" id="svg_6"/>
			<path fill="none" fill-opacity="1" stroke="#222222" stroke-opacity="1" stroke-width="6" stroke-dasharray="none" stroke-linejoin="round" stroke-linecap="butt" stroke-dashoffset="" fill-rule="nonzero" opacity="1" marker-start="" marker-mid="" marker-end="" d="M206.97868509055678,332.66067798583003 L265.04320077301935,372.98325832087346 " id="svg_7"/>
			<path fill="none" fill-opacity="1" stroke="#222222" stroke-opacity="1" stroke-width="6" stroke-dasharray="none" stroke-linejoin="round" stroke-linecap="butt" stroke-dashoffset="" fill-rule="nonzero" opacity="1" marker-start="" marker-mid="" marker-end="" d="M265.04320077301935,372.98325832087346 L301.33352307455846,343.1445488729413 " id="svg_9"/>
			<path fill="none" fill-opacity="1" stroke="#222222" stroke-opacity="1" stroke-width="6" stroke-dasharray="none" stroke-linejoin="round" stroke-linecap="butt" stroke-dashoffset="" fill-rule="nonzero" opacity="1" marker-start="" marker-mid="" marker-end="" d="M301.33352307455846,343.1445488729413 L319.8819100286785,362.4993874337622 " id="svg_11"/>
			<path fill="none" fill-opacity="1" stroke="#222222" stroke-opacity="1" stroke-width="6" stroke-dasharray="none" stroke-linejoin="round" stroke-linecap="butt" stroke-dashoffset="" fill-rule="nonzero" opacity="1" marker-start="" marker-mid="" marker-end="" d="M319.8819100286785,362.4993874337622 L348.91416786990976,343.9510004796422 " id="svg_13"/>
			<path fill="none" fill-opacity="1" stroke="#222222" stroke-opacity="1" stroke-width="6" stroke-dasharray="none" stroke-linejoin="round" stroke-linecap="butt" stroke-dashoffset="" fill-rule="nonzero" opacity="1" marker-start="" marker-mid="" marker-end="" d="M348.91416786990976,343.9510004796422 L375.5270708910385,358.4671294002578 " id="svg_15"/>
			<path fill="none" fill-opacity="1" stroke="#222222" stroke-opacity="1" stroke-width="6" stroke-dasharray="none" stroke-linejoin="round" stroke-linecap="butt" stroke-dashoffset="" fill-rule="nonzero" opacity="1" marker-start="" marker-mid="" marker-end="" d="M375.5270708910385,358.4671294002578 L400.5270706987654,336.6929360193344 " id="svg_17"/>
			<path fill="none" fill-opacity="1" stroke="#222222" stroke-opacity="1" stroke-width="6" stroke-dasharray="none" stroke-linejoin="round" stroke-linecap="butt" stroke-dashoffset="" fill-rule="nonzero" opacity="1" marker-start="" marker-mid="" marker-end="" d="M400.5270706987654,336.6929360193344 L443.2690058539115,368.9510002873692 " id="svg_19"/>
			<path fill="none" fill-opacity="1" stroke="#222222" stroke-opacity="1" stroke-width="6" stroke-dasharray="none" stroke-linejoin="round" stroke-linecap="butt" stroke-dashoffset="" fill-rule="nonzero" opacity="1" marker-start="" marker-mid="" marker-end="" d="M443.2690058539115,368.9510002873692 L496.4948118961689,323.78971031212046 " id="svg_21"/>
			<path fill="none" fill-opacity="1" stroke="#222222" stroke-opacity="1" stroke-width="6" stroke-dasharray="none" stroke-linejoin="round" stroke-linecap="butt" stroke-dashoffset="" fill-rule="nonzero" opacity="1" marker-start="" marker-mid="" marker-end="" d="M496.4948118961689,323.78971031212046 L494.8819086827672,325.4026135255222 " id="svg_23"/>
		</g>
	</g>
</svg>